<?xml version="1.0" encoding="UTF-8"?>
<svg version="1.1" xmlns="http://www.w3.org/2000/svg" width="1024" height="556">
<path d="M0 0 C1.32 0 2.64 0 4 0 C5.78367974 4.02203234 6.67464035 7.92122335 7.47265625 12.2421875 C7.60063095 12.92878448 7.72860565 13.61538147 7.86045837 14.32278442 C8.12918242 15.76959576 8.39546032 17.21686334 8.65942383 18.66455078 C9.06012674 20.86198517 9.46783903 23.05802388 9.87695312 25.25390625 C11.50993518 34.07637597 13.06371439 42.69498342 13.31640625 51.68359375 C13.33718735 52.38396255 13.35796844 53.08433136 13.37937927 53.80592346 C13.44412465 56.01636106 13.50340608 58.22690485 13.5625 60.4375 C13.60575681 61.94727607 13.64937323 63.45704188 13.69335938 64.96679688 C13.79972748 68.64442196 13.90120002 72.32216291 14 76 C14.86592773 75.72575195 15.73185547 75.45150391 16.62402344 75.16894531 C18.34927246 74.62898926 18.34927246 74.62898926 20.109375 74.078125 C21.24342773 73.72137695 22.37748047 73.36462891 23.54589844 72.99707031 C51.91844871 64.8069731 84.16896464 69.52576815 109.78125 83.5546875 C114.76520017 86.39257414 119.39674227 89.58221978 124 93 C124.8765625 93.64582031 125.753125 94.29164063 126.65625 94.95703125 C150.6271738 113.5207208 164.91587996 141.75308182 169.52174377 171.35302734 C170.23183616 177.17001512 170.13125196 182.99009263 170.11352539 188.84179688 C170.11367142 190.11092926 170.11381744 191.38006165 170.1139679 192.68765259 C170.11425326 196.14576064 170.10839878 199.60383358 170.10139394 203.06193352 C170.0951169 206.68406875 170.09455317 210.3062049 170.09336853 213.92834473 C170.090268 220.77753409 170.08207191 227.62670738 170.07201904 234.47588968 C170.06081812 242.2776174 170.05533745 250.07934591 170.05032361 257.88107967 C170.03988816 273.92073066 170.02155866 289.96035952 170 306 C153.17 306 136.34 306 119 306 C118.97812622 300.49904663 118.97812622 300.49904663 118.95581055 294.88696289 C118.90528399 282.71723137 118.8388041 270.54763487 118.76428509 258.37802982 C118.71952522 251.00569664 118.68006634 243.63340963 118.65356445 236.26098633 C118.63042238 229.82709888 118.59684771 223.39336004 118.55129844 216.95959085 C118.52758191 213.56027415 118.50871336 210.16110263 118.50238609 206.7617054 C119.05122042 180.36123802 119.05122042 180.36123802 110.625 155.8125 C110.25117188 155.12865234 109.87734375 154.44480469 109.4921875 153.74023438 C106.38958803 148.20974457 102.80234617 143.10926378 97.6875 139.25 C96.3571875 138.13625 96.3571875 138.13625 95 137 C95 136.34 95 135.68 95 135 C94.01 134.6596875 94.01 134.6596875 93 134.3125 C90.54137735 133.23685259 88.74598081 132.18071914 86.5625 130.6875 C73.09294656 122.02482918 55.75485605 119.68027892 40.1796875 122.75390625 C37.04408139 123.69903575 34.03419639 124.77015041 31 126 C29.79150391 126.45052734 29.79150391 126.45052734 28.55859375 126.91015625 C21.63022581 129.69355276 15.0574727 133.87091082 9.83203125 139.21875 C8 141 8 141 6 141 C5.7525 141.7425 5.505 142.485 5.25 143.25 C4 146 4 146 2.14453125 147.77734375 C-0.4064302 150.4212364 -1.87909363 153.04736953 -3.5625 156.3125 C-4.14128906 157.40175781 -4.72007813 158.49101562 -5.31640625 159.61328125 C-11.50127433 174.31633712 -10.47787359 190.5487818 -10.50611091 206.16590381 C-10.51559861 209.68529946 -10.5418088 213.20457334 -10.56611633 216.72389221 C-10.60950286 223.36386193 -10.63821965 230.00380764 -10.66143972 236.64387518 C-10.68864228 244.21367865 -10.73254333 251.7833579 -10.77772844 259.35307205 C-10.87017508 274.90199764 -10.939834 290.45091089 -11 306 C-27.83 306 -44.66 306 -62 306 C-62.09066013 288.83943126 -62.16418977 271.67907026 -62.20724869 254.51832771 C-62.22778239 246.54842618 -62.25572459 238.57868515 -62.30175781 230.60888672 C-62.34190987 223.65392622 -62.3674994 216.6990821 -62.37635398 209.7440089 C-62.38152133 206.06899071 -62.39346844 202.39430513 -62.42292023 198.71939468 C-62.54113952 183.36464052 -62.47111948 168.7974086 -58 154 C-57.70377117 153.00006201 -57.70377117 153.00006201 -57.40155792 151.97992325 C-56.54981523 149.10857576 -55.66856582 146.25193896 -54.734375 143.40625 C-53.90269902 141.1004872 -53.90269902 141.1004872 -54 139 C-54.52843506 138.72849121 -55.05687012 138.45698242 -55.60131836 138.17724609 C-74.85683022 128.25233072 -74.85683022 128.25233072 -82 123 C-82.73734375 122.48695313 -83.4746875 121.97390625 -84.234375 121.4453125 C-89.74801728 117.51537598 -89.74801728 117.51537598 -91.03515625 114.8828125 C-91.90585061 112.64245781 -91.90585061 112.64245781 -95 112 C-96.5 109.62890625 -96.5 109.62890625 -98 106.5625 C-98.7425 105.07943359 -98.7425 105.07943359 -99.5 103.56640625 C-100.2425 101.80103516 -100.2425 101.80103516 -101 100 C-101.2786792 99.3503125 -101.5573584 98.700625 -101.84448242 98.03125 C-104.77197782 90.04638262 -104.41873343 81.83472446 -104.33618164 73.44970703 C-104.3124881 70.87370673 -104.31565023 68.29873879 -104.32226562 65.72265625 C-104.31669018 64.06249392 -104.30958113 62.40233587 -104.30078125 60.7421875 C-104.30169266 59.98364471 -104.30260406 59.22510193 -104.30354309 58.443573 C-104.23671918 53.34059877 -103.39550881 48.91188545 -102 44 C-95.32762378 45.33139687 -90.07822968 47.83246271 -84.1875 51.1875 C-83.30674805 51.68072754 -82.42599609 52.17395508 -81.51855469 52.68212891 C-75.19875493 56.24765223 -69.05862909 60.00681264 -63 64 C-61.66857566 64.81562445 -60.33533192 65.62828885 -59 66.4375 C-53.7985625 69.66672578 -48.9163696 73.35791002 -44 77 C-44.15984375 75.70964844 -44.3196875 74.41929687 -44.484375 73.08984375 C-45.91983014 60.07657754 -47.15045617 45.67642349 -39 34.6875 C-38.47148438 34.04167969 -37.94296875 33.39585937 -37.3984375 32.73046875 C-35.87981286 30.95505884 -35.87981286 30.95505884 -34.625 28.5 C-27.14883768 16.99821182 -13.33096904 6.69121648 -1 1 C-0.67 0.67 -0.34 0.34 0 0 Z " fill="#317F3D" transform="translate(104,99)"/>
<path d="M0 0 C9.15107912 7.38732364 24.41176633 20.55029738 26 33 C22.90720729 37.63918907 18.8224713 41.57758337 14.4375 45 C11.85522947 47.11878607 10.05109914 49.37202922 8 52 C6.33333333 53.66666667 4.66666667 55.33333333 3 57 C1.89008952 58.28673445 0.78637425 59.57882787 -0.3125 60.875 C-3.32255165 64.36273376 -6.57389025 67.30379137 -10.0859375 70.2734375 C-12.52491225 72.47349227 -14.54795056 74.91139811 -16.6328125 77.44140625 C-18.52690823 79.60067538 -20.72815269 81.25242514 -23 83 C-25.51979644 85.39687954 -27.82724533 87.78405667 -30 90.5 C-33.83127843 95.28909804 -38.30466896 99.08722414 -43 103 C-45.68888162 105.55771666 -48.12323583 108.14788299 -50.5 111 C-52.87507827 113.85009392 -55.36277825 116.39293947 -58 119 C-58.98959813 119.98826601 -59.97850147 120.9772281 -60.96679688 121.96679688 C-82.03320313 143.03320313 -82.03320313 143.03320313 -83.5479126 144.54763794 C-84.94957977 145.94957023 -86.35029603 147.35245305 -87.75097656 148.75537109 C-89.22406603 150.22558218 -90.707806 151.68521645 -92.203125 153.1328125 C-92.87859375 153.79023438 -93.5540625 154.44765625 -94.25 155.125 C-94.93578125 155.78757812 -95.6215625 156.45015625 -96.328125 157.1328125 C-98.21948202 158.99636642 -98.21948202 158.99636642 -99 162 C-96.73849148 162.25550697 -94.47728028 162.48581863 -92.2109375 162.6953125 C-89.96293623 162.90862649 -87.71805549 163.1563347 -85.4765625 163.4296875 C-67.19294385 165.24692343 -49.99925281 161.06761718 -35.25 149.921875 C-32.85985815 147.95392739 -32.85985815 147.95392739 -30.4375 145.25 C-28 143 -28 143 -24 143 C-21.8125 145 -21.8125 145 -20.5546875 146.375 C-18.62697507 148.38989541 -16.54564263 150.17524704 -14.4375 152 C-11.24191069 154.81190836 -8.64849067 157.66802787 -6 161 C-4.12177046 162.748398 -2.1885974 164.41843555 -0.23828125 166.0859375 C2.20226606 168.17296749 4.60284341 170.30082185 7 172.4375 C7.763125 173.11683594 8.52625 173.79617188 9.3125 174.49609375 C9.869375 174.99238281 10.42625 175.48867188 11 176 C9.63760782 178.84223197 8.44766831 180.96027641 6 183 C5.34 183 4.68 183 4 183 C3.6596875 183.928125 3.6596875 183.928125 3.3125 184.875 C1.61583557 187.6219805 -0.05251711 187.86635273 -3 189 C-3.33 189.99 -3.66 190.98 -4 192 C-5.55957031 193.25512695 -5.55957031 193.25512695 -7.578125 194.48828125 C-8.32006104 194.94444824 -9.06199707 195.40061523 -9.82641602 195.87060547 C-10.62619873 196.34643066 -11.42598145 196.82225586 -12.25 197.3125 C-13.06976318 197.80379395 -13.88952637 198.29508789 -14.73413086 198.80126953 C-41.68828774 214.73915046 -73.68968785 221.12866257 -104.57641602 213.84082031 C-120.6036553 209.644779 -135.75479395 203.01414609 -149 193 C-149.78761719 192.41734375 -150.57523438 191.8346875 -151.38671875 191.234375 C-176.15196369 172.25167518 -192.08524329 145.79678487 -197 115 C-197.18433594 113.95457031 -197.36867188 112.90914062 -197.55859375 111.83203125 C-199.96838123 90.91166384 -198.50567334 69.36126245 -190 50 C-189.64292969 49.04351562 -189.28585937 48.08703125 -188.91796875 47.1015625 C-186.54670381 40.85080757 -183.50819238 35.23047373 -180 29.5625 C-179.58468018 28.88791748 -179.16936035 28.21333496 -178.74145508 27.51831055 C-176.19496378 23.51453515 -173.44488825 20.29941155 -170 17 C-169.34 16.01 -168.68 15.02 -168 14 C-164.45131264 8.67696896 -160.26280716 5.5085381 -155 2 C-154.113125 1.0925 -153.22625 0.185 -152.3125 -0.75 C-150 -3 -150 -3 -147 -3 C-147 -3.66 -147 -4.32 -147 -5 C-131.84500239 -15.49339708 -115.18930219 -22.22789064 -97 -25 C-95.93394531 -25.18304688 -94.86789062 -25.36609375 -93.76953125 -25.5546875 C-59.32015932 -29.62435424 -27.30797748 -21.14324245 0 0 Z M-116 37 C-117.3191582 37.69429379 -118.64649406 38.37530495 -120 39 C-120 39.66 -120 40.32 -120 41 C-120.556875 41.226875 -121.11375 41.45375 -121.6875 41.6875 C-124.65855185 43.37377267 -126.64522125 45.530354 -129 48 C-130.299375 49.2375 -130.299375 49.2375 -131.625 50.5 C-135.55957648 54.64165946 -137.91466637 59.62455498 -140.5 64.6875 C-141.0878125 65.82574219 -141.675625 66.96398437 -142.28125 68.13671875 C-146.34044481 76.83793776 -147.58090775 84.99613509 -147.5625 94.5625 C-147.5629834 95.69623047 -147.5634668 96.82996094 -147.56396484 97.99804688 C-147.37686268 107.49045285 -146.10830964 119.89169036 -139 127 C-137.96429619 125.96429619 -137.96429619 125.96429619 -136.90766907 124.90766907 C-83 71 -83 71 -80.26823425 68.29948425 C-77.96157036 66.04047977 -77.96157036 66.04047977 -76 63.5 C-73.19416657 59.99270822 -70.19881082 56.91488194 -66.625 54.1875 C-63.63080409 51.69233674 -61.28097854 48.9072188 -58.76171875 45.9453125 C-57.21245357 44.23459396 -55.6916079 42.84782284 -53.875 41.4375 C-51.47993471 39.40690117 -50.06681833 37.86744665 -48.3203125 35.34765625 C-47.88219238 34.71996338 -47.44407227 34.09227051 -46.99267578 33.44555664 C-46.66509277 32.96852295 -46.33750977 32.49148926 -46 32 C-48.89461219 31.0170943 -51.79058079 30.03856299 -54.6875 29.0625 C-55.50412109 28.78470703 -56.32074219 28.50691406 -57.16210938 28.22070312 C-77.44087864 21.40637985 -98.4317329 24.74306946 -116 37 Z " fill="#317E3D" transform="translate(862,188)"/>
<path d="M0 0 C0.74378906 0.70769531 1.48757813 1.41539062 2.25390625 2.14453125 C4.41775493 4.23840291 4.41775493 4.23840291 6.90234375 6.0625 C9.85285992 8.53565993 12.13478677 11.31707185 14.4375 14.375 C14.87610352 14.95306396 15.31470703 15.53112793 15.76660156 16.12670898 C19.1169542 20.61276381 21.92234778 25.18303616 24.4375 30.1875 C24.91703125 31.02925781 25.3965625 31.87101562 25.890625 32.73828125 C37.72544546 54.34579436 40.09557079 82.63022946 33.4375 106.1875 C33.08558594 107.43660156 32.73367188 108.68570313 32.37109375 109.97265625 C28.39158102 123.24050668 21.74975321 134.21914749 13.4375 145.1875 C12.7775 146.1775 12.1175 147.1675 11.4375 148.1875 C10.7775 148.1875 10.1175 148.1875 9.4375 148.1875 C9.169375 148.785625 8.90125 149.38375 8.625 150 C7.43832594 152.18597854 6.34150887 153.60082594 4.4375 155.1875 C3.7775 155.1875 3.1175 155.1875 2.4375 155.1875 C2.1075 156.1775 1.7775 157.1675 1.4375 158.1875 C0.02978516 159.44262695 0.02978516 159.44262695 -1.7734375 160.67578125 C-2.43512939 161.13186768 -3.09682129 161.5879541 -3.77856445 162.05786133 C-4.49101318 162.53376709 -5.20346191 163.00967285 -5.9375 163.5 C-6.6699292 163.99201904 -7.4023584 164.48403809 -8.15698242 164.9909668 C-10.28277483 166.40481379 -12.41922469 167.80033481 -14.5625 169.1875 C-15.96822266 170.10015625 -15.96822266 170.10015625 -17.40234375 171.03125 C-25.77170014 176.00262125 -35.24379068 178.56692919 -44.5625 181.1875 C-45.14346436 181.37231934 -45.72442871 181.55713867 -46.32299805 181.74755859 C-49.7144584 182.41379773 -53.11065734 182.39162177 -56.5546875 182.42578125 C-57.33707794 182.433853 -58.11946838 182.44192474 -58.92556763 182.45024109 C-60.5847962 182.46405786 -62.2440529 182.47479076 -63.90332031 182.48266602 C-65.57495648 182.49410014 -67.24655868 182.51441335 -68.91796875 182.54418945 C-79.79744388 182.73769363 -89.27337316 182.16481802 -99.5625 178.1875 C-101.37754287 176.37245713 -100.86378965 173.76762168 -100.9375 171.3125 C-100.7398287 143.61027967 -84.65498455 115.76168746 -68.5625 94.1875 C-67.97726562 93.37152344 -67.39203125 92.55554688 -66.7890625 91.71484375 C-66.26054687 90.98394531 -65.73203125 90.25304687 -65.1875 89.5 C-64.72601563 88.85675781 -64.26453125 88.21351563 -63.7890625 87.55078125 C-63.18191406 86.87595703 -63.18191406 86.87595703 -62.5625 86.1875 C-61.9025 86.1875 -61.2425 86.1875 -60.5625 86.1875 C-60.19125 85.0428125 -60.19125 85.0428125 -59.8125 83.875 C-58.42686708 80.89588921 -57.45203373 79.71725315 -54.5625 78.1875 C-50.70486644 78.31193979 -48.38675994 80.75780579 -45.5625 83.1875 C-43.99691802 84.98277107 -42.47642468 86.81821797 -41 88.6875 C-38.33038345 92.05575104 -35.62424057 95.17429481 -32.5625 98.1875 C-32.03871111 90.07708797 -31.51699459 81.96654639 -30.99789429 73.85583305 C-30.75676907 70.08936963 -30.51494091 66.32295413 -30.27148438 62.55664062 C-30.03638953 58.91927647 -29.8031698 55.28179642 -29.57122803 51.64422989 C-29.4825869 50.25918448 -29.39327991 48.8741815 -29.30328369 47.48922348 C-29.17696773 45.54354914 -29.0532779 43.59770484 -28.9296875 41.65185547 C-28.85862793 40.54599091 -28.78756836 39.44012634 -28.71435547 38.30075073 C-28.56590235 35.25725298 -28.53556754 32.234055 -28.5625 29.1875 C-34.87091326 28.75112972 -41.17988771 28.32440911 -47.48950195 27.90576172 C-49.62573886 27.76275941 -51.7618157 27.61734075 -53.89770508 27.46923828 C-68.14461177 26.48345561 -82.28141605 25.98513077 -96.5625 26.1875 C-96.0675 26.80625 -95.5725 27.425 -95.0625 28.0625 C-93.5625 30.1875 -93.5625 30.1875 -93.5625 32.1875 C-93.01078125 32.39761719 -92.4590625 32.60773438 -91.890625 32.82421875 C-88.73085782 34.6744851 -86.62419335 37.22126395 -84.3125 40 C-83.62414062 40.78213867 -83.62414062 40.78213867 -82.921875 41.58007812 C-80.89180108 43.99985373 -79.63173992 45.76416468 -79.1171875 48.91015625 C-79.79463519 52.37464749 -82.00338721 53.87211224 -84.5625 56.1875 C-85.2225 57.1775 -85.8825 58.1675 -86.5625 59.1875 C-87.2225 59.1875 -87.8825 59.1875 -88.5625 59.1875 C-88.80226563 59.72761719 -89.04203125 60.26773438 -89.2890625 60.82421875 C-90.89214638 63.79926705 -92.87132887 66.32633337 -94.9375 69 C-98.18110872 73.25213112 -101.05935594 77.45933899 -103.5625 82.1875 C-104.18125 83.26 -104.8 84.3325 -105.4375 85.4375 C-105.76878906 86.02660156 -106.10007812 86.61570312 -106.44140625 87.22265625 C-107.2382109 88.61914662 -108.06146864 90.00068795 -108.90234375 91.37109375 C-119.90908219 110.08546866 -125.84088783 133.56550328 -125.625 155.1875 C-125.62048828 156.05761719 -125.61597656 156.92773438 -125.61132812 157.82421875 C-125.5996736 159.94534293 -125.58174357 162.0664311 -125.5625 164.1875 C-135.00633329 159.84251429 -142.09154638 152.18008876 -148.5625 144.1875 C-149.06265625 143.57519531 -149.5628125 142.96289062 -150.078125 142.33203125 C-162.42023175 126.57960553 -169.70221682 108.17884238 -170.5625 88.1875 C-170.59424316 87.45144531 -170.62598633 86.71539062 -170.65869141 85.95703125 C-171.59299526 59.31504167 -165.52863071 33.16945585 -147.25 12.875 C-145.70802282 11.29224326 -144.14614765 9.72856217 -142.5625 8.1875 C-141.31146484 6.93453125 -141.31146484 6.93453125 -140.03515625 5.65625 C-139.21917969 4.8415625 -138.40320313 4.026875 -137.5625 3.1875 C-136.87671875 2.49269531 -136.1909375 1.79789063 -135.484375 1.08203125 C-99.43358804 -33.47744618 -36.74709073 -32.86763247 0 0 Z " fill="#317F3D" transform="translate(464.5625,221.8125)"/>
<path d="M0 0 C1.45677406 -0.01429802 1.45677406 -0.01429802 2.94297791 -0.02888489 C3.99505936 -0.02797348 5.04714081 -0.02706207 6.13110352 -0.02612305 C7.2087648 -0.03040817 8.28642609 -0.0346933 9.39674377 -0.03910828 C11.67903947 -0.04485906 13.96135351 -0.04534636 16.24365234 -0.04101562 C19.74226058 -0.03785782 23.24002194 -0.06129881 26.73852539 -0.08666992 C28.95271703 -0.08894298 31.16691095 -0.08964638 33.38110352 -0.08862305 C34.95618935 -0.10243767 34.95618935 -0.10243767 36.56309509 -0.11653137 C37.53742996 -0.11030258 38.51176483 -0.10407379 39.515625 -0.09765625 C40.37341049 -0.09828568 41.23119598 -0.0989151 42.11497498 -0.0995636 C44.83822523 0.36208241 45.6607732 1.10395853 47.32250977 3.2746582 C48.35301595 5.68783236 49.27064156 8.05378156 50.13500977 10.5246582 C50.66612894 11.99132372 51.1987121 13.45745982 51.73266602 14.9230957 C52.13316162 16.02862793 52.13316162 16.02862793 52.54174805 17.15649414 C53.65621978 20.17999531 54.86103315 23.16386599 56.07250977 26.1496582 C58.8850895 33.11835969 61.57587705 40.13058343 64.26000977 47.1496582 C67.40229959 55.35924951 70.61023931 63.53044093 73.99243164 71.64404297 C76.06886521 76.6298263 78.02448347 81.65245703 79.94360352 86.70043945 C81.69563889 91.24183426 83.50837551 95.75778276 85.32250977 100.2746582 C88.38951789 107.91654893 91.39024394 115.57992036 94.32250977 123.2746582 C95.25931607 125.71242489 96.19680736 128.14992848 97.13500977 130.5871582 C97.86417643 132.48299154 98.5933431 134.37882487 99.32250977 136.2746582 C102.02390284 133.06724049 103.29567511 129.98282934 104.63500977 126.0246582 C105.06297852 124.7871582 105.49094727 123.5496582 105.93188477 122.2746582 C106.15682617 121.62239258 106.38176758 120.97012695 106.61352539 120.2980957 C110.73189593 108.54428888 115.28612378 96.94054919 120.26000977 85.5246582 C122.75591297 79.73216103 124.95304281 73.88745559 127.03344727 67.93481445 C128.45987013 63.88463801 129.94238711 59.85859944 131.44750977 55.8371582 C131.68920898 55.1869873 131.9309082 54.53681641 132.17993164 53.86694336 C133.77579694 49.61166692 135.50635552 45.4389172 137.32250977 41.2746582 C140.47954196 42.64108387 142.27769195 44.09265565 144.42407227 46.7668457 C144.9923877 47.46672607 145.56070313 48.16660645 146.14624023 48.88769531 C146.74065918 49.63414307 147.33507812 50.38059082 147.94750977 51.1496582 C149.19181242 52.69041784 150.43660765 54.2307798 151.68188477 55.77075195 C152.29483398 56.53242676 152.9077832 57.29410156 153.53930664 58.07885742 C155.1581016 60.07220927 156.80010069 62.04083534 158.46313477 63.99731445 C158.92896973 64.54597168 159.39480469 65.09462891 159.87475586 65.65991211 C161.12369734 67.12553963 162.37536265 68.58884477 163.62719727 70.05200195 C165.32250977 72.2746582 165.32250977 72.2746582 165.32250977 74.2746582 C165.98250977 74.2746582 166.64250977 74.2746582 167.32250977 74.2746582 C170.6251559 77.23131284 173.21933495 80.36876212 175.32250977 84.2746582 C175.37045767 88.06254289 173.94806544 90.90238743 172.32250977 94.2746582 C171.54659316 96.14756035 170.7760189 98.02268217 170.01000977 99.8996582 C169.57688477 100.91286133 169.14375977 101.92606445 168.69750977 102.9699707 C167.21202116 106.54020753 165.84909678 110.14788932 164.51000977 113.7746582 C162.18933297 120.04368755 159.75461941 126.26033814 157.26000977 132.4621582 C153.57970599 141.61524976 150.01381445 150.80584076 146.52172852 160.0324707 C142.92680154 169.51824439 139.2743016 178.9735829 135.47045898 188.37768555 C133.51576279 193.22970758 131.62058598 198.09998359 129.77172852 202.9934082 C129.33393066 204.14881104 128.89613281 205.30421387 128.44506836 206.49462891 C127.59442794 208.74614696 126.74937036 210.9997851 125.91088867 213.25585938 C122.11207887 223.29668077 119.01199321 231.45527172 109.42797852 237.0168457 C103.32663642 239.48808112 97.27590418 239.34332037 90.96704102 237.63793945 C83.7625558 234.55826589 78.87784131 228.07674649 75.81079102 221.06762695 C75.06889144 219.20568146 74.34373696 217.33698133 73.63500977 215.4621582 C73.27084961 214.54112305 72.90668945 213.62008789 72.53149414 212.67114258 C70.71115996 208.03431987 68.98608622 203.36626898 67.29516602 198.6809082 C65.46005614 193.60083652 63.479713 188.59105546 61.44750977 183.5871582 C58.99648417 177.50952252 56.59518896 171.42125809 54.32250977 165.2746582 C52.08789248 159.23351243 49.73028343 153.24883345 47.32250977 147.2746582 C44.66045257 140.66955388 42.08557578 134.04297807 39.6159668 127.36376953 C37.24238813 120.98107066 34.69245665 114.67172537 32.1472168 108.35595703 C30.09111338 103.23950288 28.138049 98.10212671 26.28735352 92.9074707 C24.9437966 89.24124657 23.48145348 85.625519 22.02075195 82.00463867 C19.28657408 75.21570491 16.6184036 68.40119245 13.94750977 61.5871582 C10.32429652 52.34725905 6.67167966 43.12028665 2.97290039 33.91040039 C0.70722934 28.26047227 -1.50322443 22.59239814 -3.66967773 16.90356445 C-4.34503778 15.14186944 -5.053967 13.39270214 -5.79467773 11.6574707 C-6.99322683 8.42244882 -6.93540833 5.69207302 -6.67749023 2.2746582 C-4.19019972 -0.21263231 -3.43045237 0.01844297 0 0 Z " fill="#317E3D" transform="translate(480.677490234375,165.725341796875)"/>
<path d="M0 0 C16.5 0 33 0 50 0 C50 103.62 50 207.24 50 314 C33.5 314 17 314 0 314 C0 210.38 0 106.76 0 0 Z " fill="#317F3E" transform="translate(905,91)"/>
<path d="M0 0 C8.21741121 4.82772908 12.5130977 11.02263263 15.125 20.0390625 C17.22856937 29.90671517 15.67573771 39.82076782 10.40234375 48.53515625 C5.35077751 54.85259961 -0.76520976 58.58078417 -8.8203125 59.54296875 C-17.08886229 59.79776502 -20.28327789 59.02242355 -28.125 55.1015625 C-28.455 63.0215625 -28.785 70.9415625 -29.125 79.1015625 C-34.405 79.1015625 -39.685 79.1015625 -45.125 79.1015625 C-45.125 53.0315625 -45.125 26.9615625 -45.125 0.1015625 C-39.845 0.1015625 -34.565 0.1015625 -29.125 0.1015625 C-28.795 0.7615625 -28.465 1.4215625 -28.125 2.1015625 C-27.031875 1.6271875 -25.93875 1.1528125 -24.8125 0.6640625 C-16.99889467 -2.72674736 -7.97253752 -3.55442298 0 0 Z M-27.4375 18.2265625 C-30.38569686 23.2494164 -30.59318827 28.59304714 -29.6875 34.2890625 C-28.4341835 38.45842871 -25.97713316 40.66359921 -22.40625 43.03125 C-18.55471733 44.83830471 -15.25951321 44.97003296 -11.125 44.1015625 C-6.25350859 42.32068847 -3.37962161 39.77465904 -1.125 35.1015625 C-0.22438534 29.58040308 0.37964728 23.60128317 -2.58984375 18.66796875 C-6.44628355 14.74630375 -9.3393942 13.21865141 -14.9375 12.8515625 C-20.18895608 12.93828379 -23.5737127 14.67605525 -27.4375 18.2265625 Z " fill="#317F3D" transform="translate(661.125,465.8984375)"/>
<path d="M0 0 C5.28 0 10.56 0 16 0 C16 7.26 16 14.52 16 22 C18.97 22 21.94 22 25 22 C25 26.29 25 30.58 25 35 C22.03 35 19.06 35 16 35 C16 49.85 16 64.7 16 80 C10.72 80 5.44 80 0 80 C0 65.15 0 50.3 0 35 C-2.64 35 -5.28 35 -8 35 C-8.495 32.525 -8.495 32.525 -9 30 C-9.99 32.475 -9.99 32.475 -11 35 C-12.093125 34.95875 -13.18625 34.9175 -14.3125 34.875 C-18.08892229 34.67925334 -18.08892229 34.67925334 -21 37 C-22.42155616 41.41747927 -22.22087267 46.19689149 -22.31640625 50.80078125 C-22.33718735 51.63715622 -22.35796844 52.47353119 -22.37937927 53.33525085 C-22.44451034 55.99425421 -22.5035895 58.65335228 -22.5625 61.3125 C-22.60571992 63.12045231 -22.6493353 64.92839522 -22.69335938 66.73632812 C-22.80089485 71.15745663 -22.90023865 75.57866194 -23 80 C-28.61 80 -34.22 80 -40 80 C-40 60.86 -40 41.72 -40 22 C-34.33333333 22 -28.66666667 22 -23 22 C-22.29875 21.67 -21.5975 21.34 -20.875 21 C-13.7542185 18.52320644 -7.28167715 20.54366457 0 22 C0 14.74 0 7.48 0 0 Z " fill="#327F3E" transform="translate(792,444)"/>
<path d="M0 0 C5.92931176 4.46402207 9.29906019 9.77352199 11 17 C12.20234985 27.08982248 10.3326841 34.74849779 4.9375 43.25 C-0.02245457 48.69045017 -7.95318772 52.45990255 -15.2265625 53.23828125 C-23.83339375 53.50461642 -31.52097959 50.852525 -38.3984375 45.62109375 C-44.44656363 39.49920998 -47.09699671 32.41971783 -47.4375 24 C-47.35313075 15.65681825 -44.57474383 9.06581975 -39.06640625 2.80078125 C-27.68682674 -7.78023127 -12.88488513 -8.46532556 0 0 Z " fill="#317F3D" transform="translate(673,165)"/>
<path d="M0 0 C1.36560059 0.00303635 1.36560059 0.00303635 2.75878906 0.00613403 C3.68723633 0.00517731 4.61568359 0.00422058 5.57226562 0.00323486 C7.53938871 0.00255298 9.50651403 0.00440781 11.47363281 0.00857544 C14.49581932 0.01392358 17.51785721 0.00863071 20.54003906 0.00222778 C22.44628939 0.00288856 24.35253963 0.00416972 26.25878906 0.00613403 C27.16918945 0.0041098 28.07958984 0.00208557 29.01757812 0 C35.39383938 0.02399685 35.39383938 0.02399685 36.50878906 1.13894653 C36.5819907 3.67172303 36.60106475 6.16998571 36.57128906 8.70144653 C36.55066406 11.15582153 36.53003906 13.61019653 36.50878906 16.13894653 C27.26878906 16.13894653 18.02878906 16.13894653 8.50878906 16.13894653 C8.50878906 20.09894653 8.50878906 24.05894653 8.50878906 28.13894653 C17.74878906 28.13894653 26.98878906 28.13894653 36.50878906 28.13894653 C36.50878906 33.41894653 36.50878906 38.69894653 36.50878906 44.13894653 C27.26878906 44.13894653 18.02878906 44.13894653 8.50878906 44.13894653 C8.50878906 50.40894653 8.50878906 56.67894653 8.50878906 63.13894653 C17.74878906 63.13894653 26.98878906 63.13894653 36.50878906 63.13894653 C36.50878906 68.41894653 36.50878906 73.69894653 36.50878906 79.13894653 C21.98878906 79.13894653 7.46878906 79.13894653 -7.49121094 79.13894653 C-7.53131975 59.71291321 -7.53131975 59.71291321 -7.54003906 51.46121216 C-7.54602739 45.82065903 -7.55312742 40.18012205 -7.56665039 34.5395813 C-7.57747967 29.9943925 -7.58348786 25.44922101 -7.58608818 20.90402031 C-7.58794236 19.16599695 -7.59156283 17.4279746 -7.59694099 15.68995857 C-7.60415197 13.26416059 -7.60520186 10.83843507 -7.60473633 8.41262817 C-7.6083316 7.68686584 -7.61192688 6.96110352 -7.6156311 6.21334839 C-7.60163484 -0.48286198 -6.55285624 0.02466146 0 0 Z " fill="#2F7F3B" transform="translate(508.4912109375,444.8610534667969)"/>
<path d="M0 0 C9.12533519 -0.29849227 17.03682565 0.47074092 24.28125 6.390625 C30.81521629 12.70019244 34.08531041 19.13138713 34.96875 28.203125 C34.96875 30.843125 34.96875 33.483125 34.96875 36.203125 C20.11875 36.533125 5.26875 36.863125 -10.03125 37.203125 C-8.13263348 41.94966629 -7.53134281 43.24218895 -3.15234375 45.47265625 C1.57218147 47.09970269 6.54910175 47.23522275 11.17578125 45.26171875 C12.51146514 44.52875264 13.84367777 43.78941559 15.171875 43.04296875 C18.11309279 41.66826913 19.94768211 42.19610237 22.96875 43.203125 C25.69355037 44.43671644 28.34349538 45.7705622 30.96875 47.203125 C30.0826712 51.82268187 27.6120026 54.38788435 23.96875 57.203125 C15.61739784 62.64820661 4.55932914 62.56069556 -5.03125 61.203125 C-13.84114946 58.55922092 -19.71901306 53.91100501 -24.2734375 46.0625 C-28.66462998 36.91670601 -28.53380032 26.31352445 -25.21875 16.828125 C-21.81752411 9.67782057 -16.07417452 4.67135101 -8.99609375 1.20703125 C-6.01416909 0.28902897 -3.10441733 0.20802797 0 0 Z M-8.03125 18.203125 C-8.69125 19.853125 -9.35125 21.503125 -10.03125 23.203125 C-0.79125 23.203125 8.44875 23.203125 17.96875 23.203125 C15.80140103 18.86842707 13.66353554 16.28103921 9.09375 14.453125 C2.64809296 13.69481241 -2.82233546 14.02401885 -8.03125 18.203125 Z " fill="#317F3D" transform="translate(847.03125,463.796875)"/>
<path d="M0 0 C7.32095197 5.71420838 10.5575133 13.22628497 11.9296875 22.3046875 C12.32304765 30.89714824 9.77686672 38.92622283 4.4921875 45.72265625 C-1.60568405 51.97523067 -8.82051168 55.5924618 -17.55371094 56.01879883 C-26.20301919 56.08684764 -33.59382011 54.71530538 -40.3203125 49.03515625 C-41.0421875 48.16890625 -41.7640625 47.30265625 -42.5078125 46.41015625 C-43.3740625 45.52328125 -44.2403125 44.63640625 -45.1328125 43.72265625 C-50.62979467 36.92512625 -51.38359775 27.82009408 -50.5078125 19.41015625 C-49.28592311 12.8460528 -47.31284109 8.09197898 -42.5078125 3.41015625 C-41.8478125 3.41015625 -41.1878125 3.41015625 -40.5078125 3.41015625 C-40.1675 2.51296875 -40.1675 2.51296875 -39.8203125 1.59765625 C-37.39120814 -2.45085101 -33.18467641 -4.09648923 -28.7109375 -5.234375 C-18.28857727 -6.91599695 -8.95278151 -5.67567301 0 0 Z M-31.6484375 14.5546875 C-34.02627245 18.20636261 -34.04245032 20.58042877 -34.0078125 24.91015625 C-34.018125 26.19921875 -34.0284375 27.48828125 -34.0390625 28.81640625 C-33.30103513 33.80894436 -31.1111696 36.08166036 -27.3203125 39.22265625 C-22.73711224 41.15778525 -18.19972665 41.37303323 -13.4765625 39.68359375 C-9.47056974 37.59572464 -7.45873814 35.40274825 -5.5078125 31.41015625 C-4.55884266 26.03953708 -4.2304451 20.66854182 -6.97265625 15.8203125 C-9.6566304 12.68238923 -11.55145794 10.7289411 -15.5078125 9.41015625 C-22.22745257 8.96952411 -26.66930435 9.56646834 -31.6484375 14.5546875 Z " fill="#317E3D" transform="translate(734.5078125,469.58984375)"/>
<path d="M0 0 C17.8305497 -1.64046105 17.8305497 -1.64046105 22.8515625 2.15625 C24.58382096 4.72146679 25.88085433 7.11949848 27 10 C27.33 10.66 27.66 11.32 28 12 C28.66 12 29.32 12 30 12 C31.41938438 10.23810568 32.76266543 8.41435143 34.0625 6.5625 C37.96956522 1.03043478 37.96956522 1.03043478 39 0 C40.41570123 -0.08651611 41.835595 -0.10704904 43.25390625 -0.09765625 C44.53491211 -0.09282227 44.53491211 -0.09282227 45.84179688 -0.08789062 C46.73962891 -0.07951172 47.63746094 -0.07113281 48.5625 -0.0625 C49.46419922 -0.05798828 50.36589844 -0.05347656 51.29492188 -0.04882812 C53.53001314 -0.03700225 55.76497437 -0.0205222 58 0 C53.66203105 7.08581424 49.03721441 13.73560569 43.91796875 20.2734375 C42.06750449 22.90403638 40.69675348 24.85709043 40 28 C41.09391622 30.47208024 41.09391622 30.47208024 43.125 32.8125 C43.85976563 33.75738281 44.59453125 34.70226562 45.3515625 35.67578125 C45.97659668 36.45816162 45.97659668 36.45816162 46.61425781 37.25634766 C48.73294134 39.92224578 50.79984849 42.62648839 52.85888672 45.33862305 C53.94341109 46.76696197 55.03607582 48.18916039 56.13720703 49.60473633 C56.63849121 50.26111084 57.13977539 50.91748535 57.65625 51.59375 C58.10806641 52.17833984 58.55988281 52.76292969 59.02539062 53.36523438 C60 55 60 55 60 58 C53.73 58 47.46 58 41 58 C41 57.01 41 56.02 41 55 C40.01 54.67 39.02 54.34 38 54 C36.57274579 52.03010657 35.22785836 49.99966149 33.9375 47.9375 C32.67652842 45.92511146 31.37535789 43.93601333 30 42 C29.34 42 28.68 42 28 42 C26.31712248 44.04204586 26.31712248 44.04204586 24.625 46.625 C24.03976562 47.48351562 23.45453125 48.34203125 22.8515625 49.2265625 C20.90521629 52.01529876 20.90521629 52.01529876 19.3515625 55.3125 C17 58 17 58 14.99658203 58.47412109 C12.55407202 58.59160372 10.19056255 58.52372178 7.75 58.375 C6.48929688 58.33439453 6.48929688 58.33439453 5.203125 58.29296875 C3.13431366 58.22244109 1.06682607 58.11482367 -1 58 C-0.47590045 54.26738858 0.2841216 52.23266777 2.875 49.5 C5.37307529 46.83873387 7.12882227 44.13228778 9 41 C13.61768255 34.75027219 13.61768255 34.75027219 15.12304688 32.81640625 C16.52235635 30.97791573 16.52235635 30.97791573 18 28 C17.25581811 24.53221363 15.51556634 22.09773982 13.375 19.3125 C11 16.21676301 11 16.21676301 11 14 C10.01 13.67 9.02 13.34 8 13 C6.8125 9.9375 6.8125 9.9375 6 7 C5.34 7 4.68 7 4 7 C2.02 3.535 2.02 3.535 0 0 Z " fill="#317F3D" transform="translate(550,466)"/>
<path d="M0 0 C1.9375 2.625 1.9375 2.625 2.625 5.125 C1.58515342 8.90626028 -1.00949124 10.31966686 -4.0625 12.625 C-4.3925 13.285 -4.7225 13.945 -5.0625 14.625 C-7.63167922 14.14922607 -9.18141123 13.54465457 -11.375 12.0625 C-14.76188617 10.25090972 -17.27787938 10.40237526 -21.0625 10.625 C-18.07136108 14.11466207 -15.34455367 16.1288538 -11.1875 18.125 C0.47794419 23.74040756 0.47794419 23.74040756 2.875 29.5 C4.67758118 35.4787475 4.46215234 40.91984952 2.125 46.6953125 C-0.61553639 51.14868413 -5.18738484 53.99996161 -10.0625 55.625 C-19.42527287 56.41941709 -27.14403139 56.18209626 -35.0625 50.625 C-37.6875 48.3125 -37.6875 48.3125 -39.0625 46.625 C-37.69879701 43.63279732 -36.11341917 41.33473471 -33.9375 38.875 C-33.39867187 38.26140625 -32.85984375 37.6478125 -32.3046875 37.015625 C-31.68980469 36.32726562 -31.68980469 36.32726562 -31.0625 35.625 C-28.03615239 36.07005112 -25.94845271 36.6883596 -23.25 38.1875 C-19.18754769 40.01958634 -16.47934206 39.85345735 -12.0625 39.625 C-13.34525012 35.66985379 -14.47568219 33.75770248 -18.0625 31.625 C-19.155625 31.17125 -20.24875 30.7175 -21.375 30.25 C-27.2458323 27.8059196 -32.47039279 24.59482156 -35.390625 18.703125 C-37.14192614 13.28630985 -37.324425 8.13029228 -34.734375 2.98828125 C-32.08150637 -0.72214987 -29.90041145 -2.97975875 -25.75 -4.9375 C-16.27515796 -6.0616338 -7.82521427 -6.06853351 0 0 Z " fill="#317E3D" transform="translate(960.0625,469.375)"/>
<path d="M0 0 C2.3125 0.125 2.3125 0.125 5 1 C6.5625 3.6875 6.5625 3.6875 8 7 C9.33139222 9.00129272 10.66498364 11.00112304 12 13 C16.71219889 20.99732942 21.09214758 28.48664967 19 38 C17.51942571 42.15062692 15.72621303 46.10878233 13.85986328 50.09814453 C9.51537627 59.70733073 6.22456125 69.69676894 4 80 C-0.38257889 78.53914037 -1.33525682 75.15505527 -3.3125 71.25 C-3.70695313 70.4873584 -4.10140625 69.7247168 -4.5078125 68.93896484 C-17.32090376 43.9649144 -17.32090376 43.9649144 -15 30 C-12.59948209 22.59840312 -8.26272239 15.91086179 -4.125 9.375 C-2.16153311 6.25655258 -0.97264937 3.53690681 0 0 Z " fill="#317F3D" transform="translate(929,0)"/>
<path d="M0 0 C0.680625 -0.00257813 1.36125 -0.00515625 2.0625 -0.0078125 C4 0.125 4 0.125 7 1.125 C6.46515599 6.47344008 4.53309233 10.48296103 2 15.125 C1.071875 15.063125 0.14375 15.00125 -0.8125 14.9375 C-3.92742628 14.81545023 -3.92742628 14.81545023 -5.62744141 16.41040039 C-11.10348503 23.25107174 -9.45275928 35.79345604 -9.625 44.1875 C-9.66325517 45.73634828 -9.70231106 47.28517699 -9.7421875 48.83398438 C-9.83884394 52.59754467 -9.91905246 56.36093927 -10 60.125 C-15.28 60.125 -20.56 60.125 -26 60.125 C-26 40.985 -26 21.845 -26 2.125 C-21.38 2.125 -16.76 2.125 -12 2.125 C-11.67 2.785 -11.34 3.445 -11 4.125 C-10.401875 3.650625 -9.80375 3.17625 -9.1875 2.6875 C-6.13096606 0.50426147 -3.66586512 -0.01388585 0 0 Z " fill="#317E3D" transform="translate(914,463.875)"/>
<path d="M0 0 C1.32 0 2.64 0 4 0 C4.05883728 3.47909371 4.09387399 6.95805674 4.125 10.4375 C4.14175781 11.41138672 4.15851562 12.38527344 4.17578125 13.38867188 C4.27675525 28.48428501 4.27675525 28.48428501 -0.6796875 33.9609375 C-1.7268957 34.78878039 -2.79261571 35.59371062 -3.875 36.375 C-4.40480469 36.78621094 -4.93460938 37.19742188 -5.48046875 37.62109375 C-6.96960039 38.77027475 -8.4841821 39.88625581 -10 41 C-10.74507812 41.59039062 -11.49015625 42.18078125 -12.2578125 42.7890625 C-14 44 -14 44 -16 44 C-16.33 44.99 -16.66 45.98 -17 47 C-18.65848177 48.01351664 -20.32665961 49.01120795 -22 50 C-22.86625 50.86625 -23.7325 51.7325 -24.625 52.625 C-27 55 -27 55 -30 56 C-30.70517969 23.99267758 -30.70517969 23.99267758 -23 15 C-21.2550176 13.55500247 -19.51957857 12.4765583 -17.53125 11.390625 C-14.10088141 9.50603979 -10.84665726 7.37648663 -7.5625 5.25 C-6.93480713 4.84845703 -6.30711426 4.44691406 -5.66040039 4.03320312 C-2.67693513 2.21566113 -2.67693513 2.21566113 0 0 Z " fill="#317F3D" transform="translate(992,28)"/>
<path d="M0 0 C1.50626953 0.35094727 1.50626953 0.35094727 3.04296875 0.70898438 C5.48834854 1.27957299 7.93224069 1.85581433 10.375 2.4375 C9.64365161 7.32387169 8.3369089 8.48910268 4.375 11.4375 C3.776875 12.200625 3.17875 12.96375 2.5625 13.75 C-4.80728037 22.8043016 -4.80728037 22.8043016 -10.22045898 24.02075195 C-13.15468823 24.16439641 -16.00423746 24.09783911 -18.9375 23.9375 C-20.50081055 23.89399414 -20.50081055 23.89399414 -22.09570312 23.84960938 C-25.27505183 23.75079963 -28.4483428 23.6002274 -31.625 23.4375 C-33.55596446 23.35358648 -35.48695299 23.27022446 -37.41796875 23.1875 C-41.82400146 22.98464621 -46.22392452 22.72813706 -50.625 22.4375 C-50.625 21.1175 -50.625 19.7975 -50.625 18.4375 C-47.41071429 15.4375 -47.41071429 15.4375 -44.625 15.4375 C-44.398125 14.880625 -44.17125 14.32375 -43.9375 13.75 C-39.78114107 6.42689141 -31.50379912 1.29778188 -24.40625 -2.86328125 C-16.54150701 -4.84051298 -7.68724114 -1.83200607 0 0 Z " fill="#317F3D" transform="translate(1013.625,86.5625)"/>
<path d="M0 0 C3.14575207 -0.05896868 6.2913586 -0.09391603 9.4375 -0.125 C10.75524414 -0.15013672 10.75524414 -0.15013672 12.09960938 -0.17578125 C26.01844503 -0.27850328 26.01844503 -0.27850328 31.26953125 3.734375 C31.77871094 4.39953125 32.28789063 5.0646875 32.8125 5.75 C33.37710938 6.47058594 33.94171875 7.19117187 34.5234375 7.93359375 C36.41687659 10.58340666 38.23050272 13.26532239 40 16 C41.2847317 17.77587103 42.5772184 19.54614319 43.875 21.3125 C47.3921503 26.12058936 50.73696261 31.01723495 54 36 C31.68441255 35.3605217 31.68441255 35.3605217 22 32 C21.24460937 31.75765625 20.48921875 31.5153125 19.7109375 31.265625 C13.32841441 28.73173943 11.04409237 23.87427555 8 18 C7.46117187 17.05898437 6.92234375 16.11796875 6.3671875 15.1484375 C3.4982605 10.11742059 1.46099077 5.58897885 0 0 Z " fill="#317E3D" transform="translate(837,75)"/>
<path d="M0 0 C4.52737613 0.5808709 8.00452876 2.46633801 11.875 4.75 C12.46152344 5.08515625 13.04804687 5.4203125 13.65234375 5.765625 C14.84540538 6.45786296 16.02845 7.16763574 17.20117188 7.89379883 C18.41435265 8.63985232 19.65170286 9.34778053 20.90820312 10.01831055 C24.8464444 12.34671838 26.44314329 14.29449648 27.671875 18.73828125 C28.06063441 20.59042905 28.41875149 22.44920727 28.75 24.3125 C29.043302 25.77006714 29.043302 25.77006714 29.3425293 27.25708008 C29.92173115 30.16696532 30.46255594 33.08215817 31 36 C31.32158409 37.63333344 31.64559822 39.26619135 31.97265625 40.8984375 C34 51.17915662 34 51.17915662 34 55 C28.551762 53.86495042 25.23879427 51.89910985 20.90625 48.44140625 C18.90436648 46.83241092 18.90436648 46.83241092 15.9375 45.5 C9.81430197 42.37326058 5.34028646 38.0236965 2 32 C1.26285479 28.99754261 0.98623783 26.0156851 0.75 22.9375 C0.67410645 22.10565186 0.59821289 21.27380371 0.52001953 20.41674805 C-0.05903447 13.6026874 -0.22095576 6.83735328 0 0 Z " fill="#317F3D" transform="translate(867,29)"/>
</svg>
